<svg width="108" height="32" viewBox="0 0 108 32" fill="none" xmlns="http://www.w3.org/2000/svg">
<path fill-rule="evenodd" clip-rule="evenodd" d="M16.1929 0.0726038C15.828 0.140291 15.3381 0.299466 15.057 0.441628C14.396 0.776161 13.8084 1.40545 13.4029 2.21335C13.3306 2.35745 13.1831 2.61197 13.0751 2.77894C12.9672 2.94591 12.7084 3.36989 12.5001 3.72109C11.9937 4.57487 11.8373 4.80307 11.8026 4.73877C11.7875 4.71086 11.7566 4.57931 11.7338 4.44642C11.6889 4.18428 11.3441 3.22155 11.1288 2.75712C10.8461 2.14742 10.3698 1.55969 9.90321 1.24475C9.30993 0.84432 8.26803 0.478886 7.21935 0.303519C6.00554 0.100493 3.79784 0.172517 2.61611 0.453739C0.707781 0.907811 -0.078494 2.10053 0.00613996 4.41278C0.021578 4.83485 0.0647387 5.19938 0.174785 5.83746C0.635871 8.51128 1.02376 10.4874 1.90087 14.6314C2.1547 15.8307 2.28733 16.4324 2.51612 17.4228C2.65055 18.0048 2.76045 18.5302 2.7603 18.5904C2.76019 18.6507 2.7054 18.897 2.63852 19.1378C2.39459 20.0164 2.21 20.7953 1.99419 21.8562C1.90641 22.2877 1.81759 22.6849 1.7968 22.7388C1.73696 22.8941 1.40051 24.2795 1.31815 24.7099C1.10052 25.8473 1.14467 27.0863 1.43296 27.9308C1.72034 28.7728 2.42741 29.6526 3.26216 30.2067C3.94407 30.6594 4.45694 30.8789 6.3025 31.5078C7.45121 31.8992 7.93133 31.9996 8.65666 32C9.8602 32.0007 10.7465 31.7073 11.3476 31.1092C11.6473 30.8109 11.8239 30.5501 12.0482 30.0744C12.3136 29.5117 12.4136 29.1943 12.7749 27.7675C13.2246 25.9921 13.2027 26.0751 13.2313 26.0429C13.2448 26.0277 13.2589 26.1508 13.2625 26.3166C13.2829 27.2606 13.7924 28.0048 14.8282 28.6034C15.7087 29.1122 16.1157 29.2798 16.6213 29.3417C17.3631 29.4324 17.9471 29.2515 18.4713 28.7686C18.8307 28.4374 19.1149 27.9981 19.5673 27.0742C19.7785 26.6427 19.9548 26.2859 19.959 26.2813C19.9725 26.2665 21.2728 26.0493 21.2829 26.0602C21.2882 26.066 21.3116 26.3006 21.3348 26.5816C21.3903 27.2525 21.4607 27.5805 21.6206 27.9134C21.8795 28.4525 22.2921 28.7506 23.2623 29.0993C23.9108 29.3324 24.1339 29.3709 24.9887 29.3973C26.3137 29.4383 26.9543 29.2968 27.385 28.8682C27.4792 28.7745 27.5884 28.6285 27.6278 28.5438C27.6671 28.459 27.7129 28.3892 27.7294 28.3887C27.7459 28.3882 27.8779 28.4589 28.0228 28.5458C28.476 28.8178 29.0825 29.124 29.3443 29.2129C29.87 29.3915 30.4785 29.4097 30.9613 29.2614C31.4175 29.1211 31.9028 28.7181 32.2675 28.1764C32.3717 28.0217 32.636 27.5299 32.8548 27.0833C33.0737 26.6368 33.2618 26.2714 33.2729 26.2714C33.284 26.2714 33.5744 26.2219 33.9182 26.1614C34.262 26.1008 34.5587 26.0608 34.5774 26.0723C34.5962 26.0838 34.6119 26.1949 34.6122 26.3192C34.6146 27.1534 34.8087 27.8802 35.1388 28.2905C35.5128 28.7555 36.7666 29.2843 37.714 29.3765C38.2743 29.4311 39.4076 29.3987 39.782 29.3173C40.5614 29.148 40.9831 28.7098 41.1203 27.9266C41.1573 27.7156 41.2003 26.905 41.2496 25.4905C41.3901 21.4518 41.602 17.6402 41.7718 16.0909C41.8241 15.6146 41.8539 15.1175 41.8539 14.7226C41.8539 14.0326 41.8016 13.7806 41.5664 13.336C41.3437 12.9152 40.8119 12.4969 40.1854 12.2498C39.5897 12.0148 38.1862 11.6356 37.5818 11.5464C36.9707 11.4562 35.8031 11.4356 35.3887 11.5076C34.4194 11.6762 33.7961 12.1247 33.1265 13.1353C32.0746 14.7231 29.9267 18.5523 28.5448 21.3037C28.3094 21.7725 28.1093 22.1487 28.1003 22.1397C28.0842 22.1236 28.1373 21.034 28.2501 19.0648C28.324 17.7757 28.4759 15.8894 28.5337 15.5436C28.6021 15.1341 28.5913 14.3066 28.5131 13.9708C28.374 13.3737 28.0605 12.922 27.5602 12.5978C27.1879 12.3566 26.848 12.2153 26.1007 11.9912C24.6451 11.5545 24.1909 11.4785 23.0239 11.4765C22.1549 11.475 21.8412 11.5155 21.4589 11.6785L21.2989 11.7468L21.3419 11.6656C21.3656 11.621 21.5445 11.3218 21.7395 11.0007C22.3941 9.92251 22.7112 9.33095 23.0804 8.4991C23.6263 7.26898 23.7436 6.81625 23.7112 6.06465C23.6899 5.57 23.6204 5.33617 23.3174 4.73954C22.8573 3.83344 22.2199 2.9947 21.3501 2.15082C20.3862 1.21563 19.4818 0.611373 18.5076 0.251772C17.8221 -0.00131746 16.9539 -0.0685365 16.1929 0.0726038ZM56.7051 0.0707061C56.1681 0.166673 55.5345 0.411118 55.1719 0.662236C54.6554 1.01998 54.2162 1.56334 53.8372 2.31363C53.7655 2.45557 53.6609 2.63835 53.6048 2.71983C53.5486 2.80128 53.2898 3.21999 53.0298 3.65031C52.3863 4.71488 52.3457 4.77927 52.3168 4.77927C52.303 4.77927 52.2736 4.68484 52.2516 4.56947C52.1922 4.25891 52.1495 4.11485 51.9672 3.61163C51.4445 2.16881 50.8925 1.45792 49.9212 0.976555C49.3579 0.697412 48.5106 0.43848 47.7058 0.299566C47.1652 0.206226 47.0729 0.201013 45.9976 0.203057C44.0577 0.206705 42.9943 0.371494 42.1289 0.802577C41.1731 1.27872 40.6824 2.05236 40.5326 3.31949C40.4639 3.90065 40.4642 4.44252 40.5335 4.98723C40.7427 6.63111 42.1066 13.5171 42.9714 17.2951C43.0335 17.566 43.1259 17.971 43.1768 18.1949L43.2694 18.6022L43.1232 19.1437C42.8869 20.0179 42.684 20.8671 42.4924 21.7832C42.3938 22.2549 42.2384 22.9199 42.1471 23.2611C41.7478 24.7532 41.6195 25.7074 41.6887 26.6706C41.7708 27.8136 42.1313 28.6685 42.8636 29.4565C43.5064 30.1482 44.3516 30.652 45.6329 31.1072C47.9577 31.9331 48.358 32.0269 49.3895 31.9872C50.5139 31.944 51.194 31.7101 51.78 31.1653C52.0808 30.8857 52.3028 30.5628 52.5407 30.0585C52.8148 29.4778 52.8899 29.2392 53.2786 27.7127C53.478 26.93 53.6722 26.1747 53.71 26.0342L53.7789 25.7788L53.7819 26.2167C53.7855 26.731 53.8795 27.0891 54.1112 27.4704C54.3978 27.9422 54.7334 28.2479 55.3667 28.6142C56.2235 29.1099 56.6391 29.2802 57.1414 29.3417C57.8833 29.4324 58.4673 29.2515 58.9914 28.7686C59.3509 28.4374 59.635 27.9981 60.0874 27.0742C60.2987 26.6427 60.475 26.2859 60.4791 26.2813C60.4926 26.2665 61.793 26.0493 61.803 26.0602C61.8084 26.066 61.8317 26.3006 61.855 26.5816C61.9366 27.5684 62.0891 28.0063 62.4883 28.4003C62.7628 28.6712 63.1004 28.8534 63.7824 29.0986C64.4327 29.3324 64.6557 29.371 65.5088 29.3973C67.365 29.4547 68.0508 29.129 68.3266 28.0594C68.3726 27.8806 68.4007 27.4673 68.4406 26.3809C68.6416 20.9001 68.8889 16.531 69.0538 15.5436C69.1222 15.1341 69.1114 14.3066 69.0332 13.9708C68.8941 13.3737 68.5807 12.922 68.0803 12.5978C67.7081 12.3566 67.3681 12.2153 66.6209 11.9912C65.1652 11.5545 64.7111 11.4785 63.5441 11.4765C62.6725 11.475 62.3616 11.5154 61.9746 11.6804C61.8842 11.719 61.8045 11.7449 61.7976 11.738C61.7906 11.7311 61.886 11.5623 62.0095 11.363C62.3439 10.8238 62.8572 9.93451 63.1259 9.42899C63.428 8.86074 63.8011 8.01883 63.9898 7.47948C64.203 6.86996 64.2739 6.0564 64.1537 5.59813C63.9263 4.73129 63.1555 3.51274 62.2056 2.51856C60.902 1.15419 59.6148 0.335585 58.3553 0.0699434C57.9269 -0.0204039 57.2132 -0.020079 56.7051 0.0707061ZM85.0326 0.46133C84.9217 0.467241 84.5091 0.489316 84.1158 0.51037C80.548 0.701245 75.1863 1.27187 72.2789 1.77005C70.739 2.03394 70.1456 2.19563 69.5175 2.5225C68.2729 3.17018 67.7984 4.05986 67.7981 5.74625C67.798 6.65891 67.9122 7.13356 68.4739 8.55591C68.9195 9.68412 69.4163 10.5591 70.0124 11.2654C70.6251 11.9913 71.2828 12.4653 72.0515 12.7351C72.1826 12.7811 72.3037 12.8307 72.3206 12.8453C72.3375 12.8598 72.3011 13.0501 72.2396 13.2681C72.1374 13.6306 71.7025 15.2678 71.5576 15.8355C70.4306 20.2511 70.101 21.6501 69.6285 24.0235C69.3207 25.5693 69.2698 26.0428 69.3309 26.7902C69.4773 28.5831 70.2826 29.7472 71.9643 30.597C72.7585 30.9983 74.192 31.5239 75.1856 31.7783C75.8936 31.9595 76.3512 32.0131 76.9652 31.987C77.7734 31.9527 78.2497 31.8385 78.8414 31.5374C79.7876 31.0559 80.3404 30.2093 80.7075 28.6797C80.9414 27.7051 81.4893 25.6868 81.5125 25.7138C81.526 25.7295 81.5911 25.8819 81.6572 26.0525C82.4287 28.0448 84.1355 29.1121 86.9394 29.3557C88.131 29.4591 88.9175 29.3345 89.818 28.8996C90.5039 28.5683 91.0588 28.1547 91.693 27.5021C92.2609 26.9176 92.7231 26.2868 93.1664 25.4909L93.3877 25.0935L93.4299 25.2537C93.8313 26.777 94.6374 27.8672 95.8502 28.5266C96.6611 28.9675 97.6995 29.2432 98.97 29.3547C100.403 29.4805 101.388 29.2531 102.487 28.5425C104.125 27.4841 105.42 25.5802 106.336 22.8858C106.719 21.7581 106.971 20.666 107.149 19.3567C107.222 18.8224 107.234 18.582 107.234 17.6235C107.233 16.6227 107.225 16.4628 107.149 16.0362C106.944 14.8909 106.577 14.1646 105.829 13.4261C105.404 13.0068 105.016 12.7317 104.449 12.4488C103.727 12.0879 103.059 11.8603 102.267 11.7057C101.679 11.5905 100.838 11.5917 100.287 11.7083C99.7672 11.8184 99.3285 11.9707 98.8021 12.2238C98.2922 12.4691 98.0476 12.6333 97.5534 13.0623C96.7625 13.7489 95.8064 14.9271 95.2645 15.8828C95.1985 15.9991 95.1404 16.0894 95.1353 16.0835C95.1302 16.0775 95.0902 15.9043 95.0463 15.6983C94.8563 14.8063 94.4664 14.0936 93.8127 13.4432C93.2512 12.8846 92.5923 12.4779 91.6698 12.1206C90.7478 11.7634 90.0584 11.6232 89.2313 11.6244C88.5696 11.6255 88.164 11.6934 87.4966 11.9146C86.6637 12.1909 86.0184 12.5869 85.2749 13.2786C85.1761 13.3704 85.1031 13.4208 85.1125 13.3907C85.122 13.3606 85.2605 12.9139 85.4203 12.398L85.711 11.4599L85.8943 11.4405C85.9952 11.4298 86.4572 11.3802 86.9211 11.3303C87.3849 11.2804 88.0065 11.2144 88.3023 11.1836C90.6067 10.9438 91.5664 10.2564 91.8949 8.61064C91.9648 8.26031 91.9789 8.0705 91.9801 7.46124C91.9813 6.8283 91.97 6.67822 91.8949 6.3304C91.6591 5.23824 91.2319 4.18276 90.5902 3.10713C90.249 2.53512 89.9727 2.18403 89.5209 1.7486C88.8294 1.08209 88.3613 0.826191 87.4344 0.607949C86.7886 0.455899 86.017 0.408785 85.0326 0.46133ZM17.8351 2.85334C19.1659 3.24085 20.9704 5.11185 20.9704 6.10414C20.9704 6.68351 20.303 8.05743 18.9462 10.2709C17.5906 12.4826 15.3777 15.7848 12.0541 20.5558C11.923 20.744 11.8388 20.9299 11.7151 21.3039C11.1593 22.9844 10.6536 24.7662 10.1704 26.7458C9.84264 28.0885 9.7825 28.2947 9.63332 28.5874C9.41825 29.0095 9.22783 29.1607 8.82659 29.2281C8.4084 29.2983 8.0999 29.2244 6.61419 28.6985C5.58659 28.3347 4.97512 27.9936 4.52401 27.5326C4.23578 27.238 4.0945 27.0055 4.01184 26.6898C3.9088 26.2961 3.90674 26.3124 4.32727 24.2098C4.4276 23.7081 4.53211 23.2237 4.55947 23.1333C4.58682 23.043 4.61968 22.8953 4.63251 22.8049C4.68913 22.4063 5.20207 20.2602 5.54511 18.9868L5.63496 18.6534L5.56532 18.3665C5.02173 16.127 3.88137 10.7219 3.47621 8.46469C3.39517 8.01313 3.29788 7.47948 3.26007 7.27879C3.22223 7.0781 3.14764 6.66759 3.09436 6.36656C3.04104 6.06552 2.94647 5.54829 2.88414 5.21715C2.68766 4.17294 2.727 3.77222 3.05854 3.44173C3.21688 3.28388 3.29392 3.23888 3.53726 3.16244C4.08687 2.98977 5.37236 2.88695 6.17415 2.95153C7.47615 3.0564 8.23929 3.38021 8.60272 3.98207C8.77122 4.2611 8.98977 4.86039 9.1396 5.45433C9.41745 6.55568 10.0554 9.26982 10.2631 10.2344C10.302 10.415 10.3915 10.8318 10.462 11.1605C10.5325 11.4893 10.5968 11.7648 10.6048 11.7728C10.6405 11.8083 12.7924 8.47363 14.3407 5.98342C15.5063 4.10875 15.7479 3.71306 15.8522 3.50799C16.1262 2.96912 16.5829 2.71845 17.2301 2.75183C17.4015 2.76066 17.6738 2.80634 17.8351 2.85334ZM58.0726 2.79346C58.4177 2.8637 58.6895 2.96975 59.0485 3.17412C60.0808 3.76185 61.1159 4.9013 61.3987 5.76109C61.4806 6.00995 61.4584 6.37086 61.339 6.73145C61.1603 7.27116 60.3049 8.86289 59.4074 10.3256C58.5566 11.7124 56.8549 14.2929 55.1724 16.7477C54.9592 17.0588 54.6726 17.4775 54.5356 17.6782C54.3985 17.8789 53.9164 18.5768 53.4641 19.229C53.0119 19.8812 52.5783 20.5074 52.5005 20.6204C52.3581 20.8276 52.2793 21.04 51.9274 22.1664C51.6693 22.9923 51.5852 23.2756 51.3588 24.0821C51.0183 25.2953 50.9781 25.448 50.6225 26.8735C50.2613 28.3216 50.2081 28.4849 49.9905 28.8111C49.8309 29.0503 49.6381 29.1704 49.3234 29.2264C48.942 29.2942 48.681 29.2384 47.501 28.8369C45.6894 28.2205 44.8551 27.6549 44.5508 26.837C44.3939 26.4155 44.4058 26.2476 44.6939 24.8119C44.8369 24.0994 44.9868 23.3769 45.027 23.2063C45.0672 23.0357 45.1588 22.617 45.2306 22.2758C45.3788 21.5719 45.6789 20.3366 45.9454 19.3341L46.126 18.6547L45.9631 17.984C45.6964 16.8865 45.536 16.1566 44.9858 13.5367C44.2537 10.0501 44.0769 9.13558 43.3957 5.30837C43.2303 4.37917 43.2199 4.27182 43.2679 3.9971C43.3937 3.27873 43.8786 3.05206 45.5016 2.95295C47.0301 2.85962 48.2539 3.11752 48.8227 3.65278C49.2484 4.05343 49.4559 4.64518 50.0301 7.09634C50.3653 8.52709 50.5815 9.46518 50.6929 9.97297C50.9312 11.0587 50.9972 11.3642 51.0403 11.5793C51.0639 11.6968 51.0966 11.7789 51.113 11.7617C51.1485 11.7246 52.3593 9.89244 52.5564 9.57761C52.6318 9.45719 52.8677 9.08774 53.0807 8.7566C53.5438 8.03664 54.6445 6.29216 55.0377 5.65502C56.0268 4.05241 56.2285 3.71927 56.3257 3.52763C56.6569 2.8748 57.2494 2.62579 58.0726 2.79346ZM86.6429 3.25057C86.9448 3.29672 87.3391 3.48197 87.6157 3.70755C87.9084 3.9463 88.2728 4.48138 88.6065 5.16242C89.0378 6.04276 89.2209 6.66924 89.2251 7.27879C89.2273 7.59694 89.2155 7.66991 89.133 7.84827C88.9635 8.2151 88.6678 8.35631 87.8769 8.4483C87.6138 8.47888 87.2829 8.5203 87.1415 8.54029C87.0001 8.56029 86.1515 8.64177 85.2556 8.72139C84.3598 8.80101 83.6194 8.87359 83.6102 8.88271C83.601 8.89183 83.474 9.29 83.3279 9.76754C83.1818 10.2451 82.9515 10.997 82.8163 11.4386C82.3139 13.0779 82.1863 13.4982 81.4758 15.8537C80.4746 19.1735 80.0014 20.7788 79.5507 22.3853C79.4775 22.6462 79.3781 22.9992 79.3298 23.1698C78.9181 24.6247 78.0164 27.99 77.9757 28.2236C77.9113 28.5928 77.6619 28.9514 77.3655 29.1009C77.0701 29.2498 76.7433 29.2835 76.3033 29.2103C75.9258 29.1475 75.3732 28.9922 74.8934 28.8143C74.7522 28.7619 74.5212 28.6764 74.38 28.6242C73.6965 28.3718 72.8895 27.9283 72.5994 27.6456C72.3903 27.4419 72.1913 27.0794 72.1294 26.7896C72.0741 26.5302 72.0794 25.9795 72.1402 25.6876C72.1673 25.5571 72.2154 25.3273 72.247 25.1767C72.2786 25.0262 72.3553 24.6404 72.4175 24.3193C72.4797 23.9981 72.5802 23.5055 72.6409 23.2246C72.8081 22.4511 73.0754 21.245 73.1343 20.9987C73.163 20.8783 73.3034 20.2872 73.4461 19.6851C73.6731 18.7278 74.3033 16.2283 74.5048 15.4858C74.7226 14.6832 74.9683 13.7905 75.0812 13.3907C75.3557 12.4194 75.7948 10.9039 75.9481 10.3986C76.0639 10.017 76.0959 9.86638 76.0627 9.85821C76.0375 9.85197 75.6072 9.93067 75.1067 10.0331C73.9637 10.2671 73.5696 10.2975 73.1853 10.1813C72.8399 10.0769 72.6011 9.91791 72.2721 9.57331C71.7266 9.00182 71.2034 8.01277 70.7206 6.64023C70.5862 6.25804 70.5728 6.18645 70.5697 5.83746C70.5667 5.49782 70.5768 5.43364 70.658 5.27214C70.8563 4.8782 71.1928 4.74779 72.6199 4.51189C75.5504 4.02742 78.6916 3.66804 82.5638 3.37415C85.0566 3.18496 86.0226 3.15569 86.6429 3.25057ZM23.8596 13.0642C24.2788 13.1093 25.0331 13.2879 25.7684 13.5161C26.3885 13.7086 26.5645 13.7882 26.7352 13.9532C27.0372 14.245 27.0657 14.51 26.9338 15.799C26.7194 17.8937 26.5323 21.2033 26.3773 25.6408C26.3158 27.4024 26.2953 27.559 26.1099 27.6904C25.9247 27.8217 25.7072 27.8497 25.0142 27.8316C24.4474 27.8168 24.321 27.8021 24.045 27.7192C23.6104 27.5886 23.3532 27.4612 23.2003 27.3008C22.9418 27.0295 22.8964 26.7569 22.857 25.24C22.843 24.7028 22.8212 24.2571 22.8086 24.2495C22.7959 24.242 22.6453 24.2579 22.4739 24.2851C22.3025 24.3122 21.8322 24.3847 21.4288 24.4463C20.49 24.5897 19.7702 24.7196 19.2803 24.8341L18.892 24.9249L18.705 25.2971C18.6022 25.5019 18.3867 25.9403 18.2262 26.2714C17.5576 27.651 17.2464 27.9349 16.6094 27.7466C16.2094 27.6284 15.43 27.1718 15.1461 26.8893C14.847 26.5917 14.7778 26.3474 14.8605 25.88C14.9306 25.4839 15.1657 24.9616 16.2283 22.8414C17.9235 19.4589 19.9621 15.7815 21.0648 14.1172C21.4855 13.4821 21.8506 13.1664 22.2812 13.0655C22.4768 13.0196 23.4381 13.0188 23.8596 13.0642ZM37.7088 13.1515C37.95 13.2027 38.3708 13.3122 38.6439 13.3948C38.9169 13.4775 39.23 13.5692 39.3397 13.5986C39.6047 13.6696 39.9238 13.8338 40.0459 13.962C40.2972 14.2258 40.3668 14.6139 40.2807 15.2699C40.0764 16.8256 39.8228 21.1639 39.6581 25.9248C39.6049 27.4607 39.5941 27.5337 39.3967 27.6883C39.2224 27.8247 39.0395 27.849 38.3156 27.8324C37.6527 27.8171 37.6274 27.8136 37.233 27.6836C36.2668 27.3651 36.2084 27.2384 36.1565 25.3498C36.1401 24.7526 36.1199 24.2578 36.1117 24.2502C36.1035 24.2427 35.9482 24.2593 35.7667 24.2871C35.5852 24.3149 35.1066 24.3882 34.7033 24.45C33.7688 24.593 33.0182 24.726 32.6681 24.8106C32.5168 24.8471 32.3489 24.887 32.2949 24.8992C32.1737 24.9266 32.0746 25.0934 31.7055 25.8912C31.2006 26.9825 30.7732 27.6323 30.4801 27.7542C30.2093 27.8667 29.8951 27.7888 29.2605 27.4516C28.2415 26.9101 27.9808 26.4983 28.1775 25.7409C28.2612 25.4186 28.7023 24.4673 29.5558 22.7685C30.9894 19.9149 32.4006 17.327 33.7043 15.1605C34.6624 13.5684 34.946 13.2453 35.5292 13.0817C35.859 12.9892 37.1366 13.0301 37.7088 13.1515ZM64.3797 13.0642C64.7989 13.1093 65.5532 13.2879 66.2885 13.5161C66.9086 13.7086 67.0847 13.7882 67.2553 13.9532C67.5571 14.2448 67.5855 14.5094 67.4536 15.799C67.2397 17.8889 67.0494 21.2578 66.8981 25.6329C66.8375 27.3864 66.8152 27.5594 66.6331 27.6881C66.4632 27.8083 66.2616 27.8401 65.6709 27.8396C65.0823 27.8392 64.7831 27.7971 64.3795 27.6581C64.0282 27.5372 63.8577 27.4448 63.7209 27.3013C63.4619 27.0294 63.4162 26.7559 63.3766 25.2398C63.3626 24.7025 63.3408 24.2568 63.3284 24.2493C63.3159 24.2419 63.1655 24.2579 62.994 24.2851C62.8226 24.3122 62.3523 24.3847 61.9489 24.4463C61.0101 24.5897 60.2903 24.7196 59.8004 24.8341L59.4121 24.9249L59.2251 25.2971C59.1223 25.5019 58.9068 25.9403 58.7463 26.2714C58.0777 27.651 57.7666 27.9349 57.1296 27.7466C56.7295 27.6284 55.9502 27.1718 55.6663 26.8893C55.3671 26.5917 55.298 26.3474 55.3807 25.88C55.4508 25.4839 55.6859 24.9616 56.7484 22.8414C58.4437 19.4589 60.4823 15.7815 61.5849 14.1172C62.0056 13.4821 62.3707 13.1664 62.8014 13.0655C62.997 13.0196 63.9582 13.0188 64.3797 13.0642ZM89.8437 13.2256C91.1359 13.4194 92.4181 14.0929 92.9717 14.8685C93.4321 15.5136 93.6013 16.1523 93.6386 17.3863C93.7175 19.9929 92.812 23.3494 91.4926 25.3422C90.2661 27.1944 88.793 28.0145 87.064 27.8074C85.6269 27.6352 84.7404 27.3079 84.0437 26.6921C83.4157 26.1371 83.0565 25.4609 82.8447 24.4348C82.7521 23.9865 82.7455 23.8921 82.7453 23.0239C82.7451 22.0041 82.7956 21.5454 83.0184 20.5426C83.5339 18.223 84.7848 15.9231 86.3221 14.4686C86.8126 14.0044 87.0567 13.8207 87.4449 13.6236C88.2299 13.225 88.9942 13.0982 89.8437 13.2256ZM102.139 13.2637C102.782 13.3966 103.651 13.7476 104.172 14.0847C104.65 14.394 105.093 14.8952 105.311 15.3746C105.969 16.8175 105.728 20.0633 104.763 22.7596C103.973 24.9684 103.022 26.3618 101.727 27.2092C100.757 27.8434 99.8925 27.9666 98.3254 27.6936C97.6334 27.5731 96.892 27.2888 96.4114 26.9598C96.1549 26.7842 95.7491 26.3884 95.5757 26.1446C94.9423 25.2546 94.6736 23.9692 94.7858 22.3671C94.9885 19.4755 96.3079 16.4994 98.2315 14.5947C99.0756 13.7589 99.7 13.4068 100.663 13.2239C100.998 13.1601 101.734 13.18 102.139 13.2637ZM89.5887 16.2971C89.1296 16.5223 88.4235 17.519 87.7679 18.8674C87.1392 20.1606 86.8016 21.1743 86.5662 22.4765C86.4546 23.0935 86.4446 24.2382 86.5478 24.5709C86.7205 25.1274 87.0631 25.134 87.5781 24.5907C88.4894 23.6295 89.4441 21.3965 89.8315 19.3202C89.9714 18.5706 89.9992 18.264 90.0003 17.4593C90.0014 16.6387 89.9726 16.4142 89.8511 16.2933C89.7804 16.2229 89.7386 16.2235 89.5887 16.2971ZM101.545 16.3454C100.886 16.7243 99.706 18.7609 99.0712 20.6156C98.6513 21.8423 98.4251 23.2818 98.5199 24.1232C98.572 24.5856 98.6221 24.7517 98.7509 24.8888C99.1194 25.2814 99.8734 24.5381 100.628 23.0385C100.937 22.4241 101.088 22.0564 101.352 21.2758C101.615 20.4957 101.76 19.9291 101.91 19.085C102.018 18.4809 102.024 18.3906 102.027 17.4958C102.029 16.6015 102.025 16.5387 101.952 16.4011C101.91 16.3199 101.845 16.2509 101.806 16.2456C101.767 16.2404 101.65 16.2853 101.545 16.3454ZM35.7413 18.5295C34.9634 19.8599 34.2702 21.0908 34.2886 21.1091C34.2965 21.1169 34.458 21.1002 34.6475 21.0718C34.8371 21.0435 35.2548 21 35.5758 20.9752C35.9145 20.949 36.1646 20.9138 36.1719 20.8914C36.1787 20.8701 36.2105 20.3191 36.2425 19.6669C36.2745 19.0146 36.3184 18.2624 36.34 17.9952C36.3616 17.728 36.3734 17.5035 36.3662 17.4964C36.359 17.4892 36.0778 17.9541 35.7413 18.5295ZM22.6416 18.1982C21.4894 20.1726 20.9529 21.1267 20.9954 21.1258C21.0119 21.1255 21.1698 21.1016 21.3462 21.0728C21.5227 21.0441 21.9381 21.0001 22.2693 20.9753L22.8715 20.93L22.8931 20.5995C22.9196 20.1963 23.0147 18.5738 23.0477 17.961C23.061 17.7151 23.0649 17.514 23.0563 17.514C23.0478 17.514 22.8612 17.8219 22.6416 18.1982ZM62.9703 18.5267C62.2286 19.7948 61.4896 21.1012 61.5051 21.1166C61.5116 21.1231 61.6679 21.1041 61.8523 21.0744C62.0367 21.0447 62.4585 21.0001 62.7896 20.9752L63.3916 20.93L63.4133 20.5995C63.4397 20.1963 63.5348 18.5738 63.5679 17.961C63.5811 17.7151 63.5854 17.5141 63.5772 17.5141C63.5691 17.5142 63.2959 17.9699 62.9703 18.5267ZM56.6123 19.6691C56.199 20.4545 54.574 23.6983 54.3285 24.2278C54.1936 24.5188 54.0833 24.7342 54.0833 24.7066C54.0833 24.647 54.3639 23.7009 54.6687 22.7331L54.8869 22.0401L55.3234 21.4099C55.7968 20.7265 56.3248 19.9582 56.6255 19.5149C56.7298 19.3611 56.8189 19.239 56.8236 19.2435C56.8282 19.248 56.7331 19.4396 56.6123 19.6691ZM15.1782 21.464C14.6382 22.5326 14.075 23.6647 13.9266 23.9797C13.7782 24.2947 13.6512 24.5468 13.6444 24.54C13.6301 24.5258 13.6832 24.3443 14.0826 23.0421C14.4025 21.9993 14.3339 22.1368 15.0606 21.0817C15.2227 20.8463 15.5306 20.3989 15.745 20.0874C15.9593 19.7758 16.1403 19.5209 16.1473 19.5209C16.1543 19.5209 15.7182 20.3953 15.1782 21.464Z" fill="#131313"/>
</svg>
